<?xml version="1.0" encoding="utf-8" standalone="no"?>
<!DOCTYPE svg PUBLIC "-//W3C//DTD SVG 1.1//EN"
  "http://www.w3.org/Graphics/SVG/1.1/DTD/svg11.dtd">
<!-- Created with matplotlib (https://matplotlib.org/) -->
<svg height="360pt" version="1.1" viewBox="0 0 432 360" width="432pt" xmlns="http://www.w3.org/2000/svg" xmlns:xlink="http://www.w3.org/1999/xlink">
 <metadata>
  <rdf:RDF xmlns:cc="http://creativecommons.org/ns#" xmlns:dc="http://purl.org/dc/elements/1.1/" xmlns:rdf="http://www.w3.org/1999/02/22-rdf-syntax-ns#">
   <cc:Work>
    <dc:type rdf:resource="http://purl.org/dc/dcmitype/StillImage"/>
    <dc:date>2021-04-01T21:38:19.022978</dc:date>
    <dc:format>image/svg+xml</dc:format>
    <dc:creator>
     <cc:Agent>
      <dc:title>Matplotlib v3.3.4, https://matplotlib.org/</dc:title>
     </cc:Agent>
    </dc:creator>
   </cc:Work>
  </rdf:RDF>
 </metadata>
 <defs>
  <style type="text/css">*{stroke-linecap:butt;stroke-linejoin:round;}</style>
 </defs>
 <g id="figure_1">
  <g id="patch_1">
   <path d="M 0 360 
L 432 360 
L 432 0 
L 0 0 
z
" style="fill:#ffffff;"/>
  </g>
  <g id="axes_1">
   <g id="patch_2">
    <path d="M 54 320.4 
L 388.8 320.4 
L 388.8 43.2 
L 54 43.2 
z
" style="fill:#ffffff;"/>
   </g>
   <g id="matplotlib.axis_1">
    <g id="xtick_1">
     <g id="line2d_1">
      <defs>
       <path d="M 0 0 
L 0 3.5 
" id="mbd6264b14c" style="stroke:#000000;stroke-width:0.8;"/>
      </defs>
      <g>
       <use style="stroke:#000000;stroke-width:0.8;" x="54" xlink:href="#mbd6264b14c" y="320.4"/>
      </g>
     </g>
     <g id="text_1">
      <!-- M -->
      <g transform="translate(47.528906 338.797656)scale(0.15 -0.15)">
       <defs>
        <path d="M 9.8125 72.90625 
L 24.515625 72.90625 
L 43.109375 23.296875 
L 61.8125 72.90625 
L 76.515625 72.90625 
L 76.515625 0 
L 66.890625 0 
L 66.890625 64.015625 
L 48.09375 14.015625 
L 38.1875 14.015625 
L 19.390625 64.015625 
L 19.390625 0 
L 9.8125 0 
z
" id="DejaVuSans-77"/>
       </defs>
       <use xlink:href="#DejaVuSans-77"/>
      </g>
     </g>
    </g>
    <g id="xtick_2">
     <g id="line2d_2">
      <g>
       <use style="stroke:#000000;stroke-width:0.8;" x="124.751565" xlink:href="#mbd6264b14c" y="320.4"/>
      </g>
     </g>
     <g id="text_2">
      <!-- K -->
      <g transform="translate(119.833206 338.797656)scale(0.15 -0.15)">
       <defs>
        <path d="M 9.8125 72.90625 
L 19.671875 72.90625 
L 19.671875 42.09375 
L 52.390625 72.90625 
L 65.09375 72.90625 
L 28.90625 38.921875 
L 67.671875 0 
L 54.6875 0 
L 19.671875 35.109375 
L 19.671875 0 
L 9.8125 0 
z
" id="DejaVuSans-75"/>
       </defs>
       <use xlink:href="#DejaVuSans-75"/>
      </g>
     </g>
    </g>
    <g id="xtick_3">
     <g id="line2d_3">
      <g>
       <use style="stroke:#000000;stroke-width:0.8;" x="266.254695" xlink:href="#mbd6264b14c" y="320.4"/>
      </g>
     </g>
     <g id="text_3">
      <!-- Γ -->
      <g transform="translate(262.075789 338.797656)scale(0.15 -0.15)">
       <defs>
        <path d="M 9.8125 0 
L 9.8125 72.90625 
L 55.171875 72.90625 
L 55.171875 64.59375 
L 19.671875 64.59375 
L 19.671875 0 
z
" id="DejaVuSans-915"/>
       </defs>
       <use xlink:href="#DejaVuSans-915"/>
      </g>
     </g>
    </g>
    <g id="xtick_4">
     <g id="line2d_4">
      <g>
       <use style="stroke:#000000;stroke-width:0.8;" x="388.8" xlink:href="#mbd6264b14c" y="320.4"/>
      </g>
     </g>
     <g id="text_4">
      <!-- M -->
      <g transform="translate(382.328906 338.797656)scale(0.15 -0.15)">
       <use xlink:href="#DejaVuSans-77"/>
      </g>
     </g>
    </g>
   </g>
   <g id="matplotlib.axis_2">
    <g id="ytick_1">
     <g id="line2d_5">
      <defs>
       <path d="M 0 0 
L -3.5 0 
" id="m642254ea13" style="stroke:#000000;stroke-width:0.8;"/>
      </defs>
      <g>
       <use style="stroke:#000000;stroke-width:0.8;" x="54" xlink:href="#m642254ea13" y="320.4"/>
      </g>
     </g>
     <g id="text_5">
      <!-- −3 -->
      <g transform="translate(26.360937 325.718906)scale(0.14 -0.14)">
       <defs>
        <path d="M 10.59375 35.5 
L 73.1875 35.5 
L 73.1875 27.203125 
L 10.59375 27.203125 
z
" id="DejaVuSans-8722"/>
        <path d="M 40.578125 39.3125 
Q 47.65625 37.796875 51.625 33 
Q 55.609375 28.21875 55.609375 21.1875 
Q 55.609375 10.40625 48.1875 4.484375 
Q 40.765625 -1.421875 27.09375 -1.421875 
Q 22.515625 -1.421875 17.65625 -0.515625 
Q 12.796875 0.390625 7.625 2.203125 
L 7.625 11.71875 
Q 11.71875 9.328125 16.59375 8.109375 
Q 21.484375 6.890625 26.8125 6.890625 
Q 36.078125 6.890625 40.9375 10.546875 
Q 45.796875 14.203125 45.796875 21.1875 
Q 45.796875 27.640625 41.28125 31.265625 
Q 36.765625 34.90625 28.71875 34.90625 
L 20.21875 34.90625 
L 20.21875 43.015625 
L 29.109375 43.015625 
Q 36.375 43.015625 40.234375 45.921875 
Q 44.09375 48.828125 44.09375 54.296875 
Q 44.09375 59.90625 40.109375 62.90625 
Q 36.140625 65.921875 28.71875 65.921875 
Q 24.65625 65.921875 20.015625 65.03125 
Q 15.375 64.15625 9.8125 62.3125 
L 9.8125 71.09375 
Q 15.4375 72.65625 20.34375 73.4375 
Q 25.25 74.21875 29.59375 74.21875 
Q 40.828125 74.21875 47.359375 69.109375 
Q 53.90625 64.015625 53.90625 55.328125 
Q 53.90625 49.265625 50.4375 45.09375 
Q 46.96875 40.921875 40.578125 39.3125 
z
" id="DejaVuSans-51"/>
       </defs>
       <use xlink:href="#DejaVuSans-8722"/>
       <use x="83.789062" xlink:href="#DejaVuSans-51"/>
      </g>
     </g>
    </g>
    <g id="ytick_2">
     <g id="line2d_6">
      <g>
       <use style="stroke:#000000;stroke-width:0.8;" x="54" xlink:href="#m642254ea13" y="274.2"/>
      </g>
     </g>
     <g id="text_6">
      <!-- −2 -->
      <g transform="translate(26.360937 279.518906)scale(0.14 -0.14)">
       <defs>
        <path d="M 19.1875 8.296875 
L 53.609375 8.296875 
L 53.609375 0 
L 7.328125 0 
L 7.328125 8.296875 
Q 12.9375 14.109375 22.625 23.890625 
Q 32.328125 33.6875 34.8125 36.53125 
Q 39.546875 41.84375 41.421875 45.53125 
Q 43.3125 49.21875 43.3125 52.78125 
Q 43.3125 58.59375 39.234375 62.25 
Q 35.15625 65.921875 28.609375 65.921875 
Q 23.96875 65.921875 18.8125 64.3125 
Q 13.671875 62.703125 7.8125 59.421875 
L 7.8125 69.390625 
Q 13.765625 71.78125 18.9375 73 
Q 24.125 74.21875 28.421875 74.21875 
Q 39.75 74.21875 46.484375 68.546875 
Q 53.21875 62.890625 53.21875 53.421875 
Q 53.21875 48.921875 51.53125 44.890625 
Q 49.859375 40.875 45.40625 35.40625 
Q 44.1875 33.984375 37.640625 27.21875 
Q 31.109375 20.453125 19.1875 8.296875 
z
" id="DejaVuSans-50"/>
       </defs>
       <use xlink:href="#DejaVuSans-8722"/>
       <use x="83.789062" xlink:href="#DejaVuSans-50"/>
      </g>
     </g>
    </g>
    <g id="ytick_3">
     <g id="line2d_7">
      <g>
       <use style="stroke:#000000;stroke-width:0.8;" x="54" xlink:href="#m642254ea13" y="228"/>
      </g>
     </g>
     <g id="text_7">
      <!-- −1 -->
      <g transform="translate(26.360937 233.318906)scale(0.14 -0.14)">
       <defs>
        <path d="M 12.40625 8.296875 
L 28.515625 8.296875 
L 28.515625 63.921875 
L 10.984375 60.40625 
L 10.984375 69.390625 
L 28.421875 72.90625 
L 38.28125 72.90625 
L 38.28125 8.296875 
L 54.390625 8.296875 
L 54.390625 0 
L 12.40625 0 
z
" id="DejaVuSans-49"/>
       </defs>
       <use xlink:href="#DejaVuSans-8722"/>
       <use x="83.789062" xlink:href="#DejaVuSans-49"/>
      </g>
     </g>
    </g>
    <g id="ytick_4">
     <g id="line2d_8">
      <g>
       <use style="stroke:#000000;stroke-width:0.8;" x="54" xlink:href="#m642254ea13" y="181.8"/>
      </g>
     </g>
     <g id="text_8">
      <!-- 0 -->
      <g transform="translate(38.0925 187.118906)scale(0.14 -0.14)">
       <defs>
        <path d="M 31.78125 66.40625 
Q 24.171875 66.40625 20.328125 58.90625 
Q 16.5 51.421875 16.5 36.375 
Q 16.5 21.390625 20.328125 13.890625 
Q 24.171875 6.390625 31.78125 6.390625 
Q 39.453125 6.390625 43.28125 13.890625 
Q 47.125 21.390625 47.125 36.375 
Q 47.125 51.421875 43.28125 58.90625 
Q 39.453125 66.40625 31.78125 66.40625 
z
M 31.78125 74.21875 
Q 44.046875 74.21875 50.515625 64.515625 
Q 56.984375 54.828125 56.984375 36.375 
Q 56.984375 17.96875 50.515625 8.265625 
Q 44.046875 -1.421875 31.78125 -1.421875 
Q 19.53125 -1.421875 13.0625 8.265625 
Q 6.59375 17.96875 6.59375 36.375 
Q 6.59375 54.828125 13.0625 64.515625 
Q 19.53125 74.21875 31.78125 74.21875 
z
" id="DejaVuSans-48"/>
       </defs>
       <use xlink:href="#DejaVuSans-48"/>
      </g>
     </g>
    </g>
    <g id="ytick_5">
     <g id="line2d_9">
      <g>
       <use style="stroke:#000000;stroke-width:0.8;" x="54" xlink:href="#m642254ea13" y="135.6"/>
      </g>
     </g>
     <g id="text_9">
      <!-- 1 -->
      <g transform="translate(38.0925 140.918906)scale(0.14 -0.14)">
       <use xlink:href="#DejaVuSans-49"/>
      </g>
     </g>
    </g>
    <g id="ytick_6">
     <g id="line2d_10">
      <g>
       <use style="stroke:#000000;stroke-width:0.8;" x="54" xlink:href="#m642254ea13" y="89.4"/>
      </g>
     </g>
     <g id="text_10">
      <!-- 2 -->
      <g transform="translate(38.0925 94.718906)scale(0.14 -0.14)">
       <use xlink:href="#DejaVuSans-50"/>
      </g>
     </g>
    </g>
    <g id="ytick_7">
     <g id="line2d_11">
      <g>
       <use style="stroke:#000000;stroke-width:0.8;" x="54" xlink:href="#m642254ea13" y="43.2"/>
      </g>
     </g>
     <g id="text_11">
      <!-- 3 -->
      <g transform="translate(38.0925 48.518906)scale(0.14 -0.14)">
       <use xlink:href="#DejaVuSans-51"/>
      </g>
     </g>
    </g>
    <g id="text_12">
     <!-- $\varepsilon_n(k) - \varepsilon_{\mathrm{VBM}}$ (eV) -->
     <g transform="translate(18.201562 263.1)rotate(-90)scale(0.2 -0.2)">
      <defs>
       <path d="M 19.734375 29.5 
Q 14.453125 30.671875 12.15625 33.84375 
Q 10.453125 36.078125 10.453125 39.109375 
Q 10.453125 47.40625 18.359375 52.25 
Q 24.609375 56.0625 34.1875 56.0625 
Q 37.890625 56.0625 41.9375 55.46875 
Q 46 54.890625 50.53125 53.71875 
L 48.96875 45.5625 
Q 44.484375 46.96875 40.71875 47.609375 
Q 36.859375 48.25 33.40625 48.25 
Q 27.59375 48.25 23.78125 46 
Q 19.1875 43.3125 19.1875 39.40625 
Q 19.1875 36.8125 21.578125 35.015625 
Q 24.421875 32.859375 30.078125 32.859375 
L 37.640625 32.859375 
L 36.234375 25.4375 
L 29 25.4375 
Q 22.265625 25.4375 18.3125 22.953125 
Q 12.9375 19.578125 12.9375 14.3125 
Q 12.9375 10.984375 15.828125 8.796875 
Q 19.4375 6.0625 26.8125 6.0625 
Q 31.34375 6.0625 35.6875 6.9375 
Q 40.046875 7.859375 43.84375 9.671875 
L 42.1875 1.3125 
Q 37.546875 -0.046875 33.296875 -0.734375 
Q 29.046875 -1.421875 25.140625 -1.421875 
Q 13.53125 -1.421875 8.0625 3.03125 
Q 3.90625 6.453125 3.90625 12.203125 
Q 3.90625 19.96875 9.375 24.75 
Q 13.421875 28.328125 19.734375 29.5 
z
" id="DejaVuSans-Oblique-949"/>
       <path d="M 55.71875 33.015625 
L 49.3125 0 
L 40.28125 0 
L 46.6875 32.671875 
Q 47.125 34.96875 47.359375 36.71875 
Q 47.609375 38.484375 47.609375 39.5 
Q 47.609375 43.609375 45.015625 45.890625 
Q 42.4375 48.1875 37.796875 48.1875 
Q 30.5625 48.1875 25.34375 43.375 
Q 20.125 38.578125 18.5 30.328125 
L 12.5 0 
L 3.515625 0 
L 14.109375 54.6875 
L 23.09375 54.6875 
L 21.296875 46.09375 
Q 25.046875 50.828125 30.3125 53.40625 
Q 35.59375 56 41.40625 56 
Q 48.640625 56 52.609375 52.09375 
Q 56.59375 48.1875 56.59375 41.109375 
Q 56.59375 39.359375 56.375 37.359375 
Q 56.15625 35.359375 55.71875 33.015625 
z
" id="DejaVuSans-Oblique-110"/>
       <path d="M 31 75.875 
Q 24.46875 64.65625 21.28125 53.65625 
Q 18.109375 42.671875 18.109375 31.390625 
Q 18.109375 20.125 21.3125 9.0625 
Q 24.515625 -2 31 -13.1875 
L 23.1875 -13.1875 
Q 15.875 -1.703125 12.234375 9.375 
Q 8.59375 20.453125 8.59375 31.390625 
Q 8.59375 42.28125 12.203125 53.3125 
Q 15.828125 64.359375 23.1875 75.875 
z
" id="DejaVuSans-40"/>
       <path d="M 18.3125 75.984375 
L 27.296875 75.984375 
L 18.703125 31.6875 
L 49.515625 54.6875 
L 61.1875 54.6875 
L 26.8125 28.515625 
L 51.90625 0 
L 41.015625 0 
L 17.671875 26.703125 
L 12.5 0 
L 3.515625 0 
z
" id="DejaVuSans-Oblique-107"/>
       <path d="M 8.015625 75.875 
L 15.828125 75.875 
Q 23.140625 64.359375 26.78125 53.3125 
Q 30.421875 42.28125 30.421875 31.390625 
Q 30.421875 20.453125 26.78125 9.375 
Q 23.140625 -1.703125 15.828125 -13.1875 
L 8.015625 -13.1875 
Q 14.5 -2 17.703125 9.0625 
Q 20.90625 20.125 20.90625 31.390625 
Q 20.90625 42.671875 17.703125 53.65625 
Q 14.5 64.65625 8.015625 75.875 
z
" id="DejaVuSans-41"/>
       <path d="M 28.609375 0 
L 0.78125 72.90625 
L 11.078125 72.90625 
L 34.1875 11.53125 
L 57.328125 72.90625 
L 67.578125 72.90625 
L 39.796875 0 
z
" id="DejaVuSans-86"/>
       <path d="M 19.671875 34.8125 
L 19.671875 8.109375 
L 35.5 8.109375 
Q 43.453125 8.109375 47.28125 11.40625 
Q 51.125 14.703125 51.125 21.484375 
Q 51.125 28.328125 47.28125 31.5625 
Q 43.453125 34.8125 35.5 34.8125 
z
M 19.671875 64.796875 
L 19.671875 42.828125 
L 34.28125 42.828125 
Q 41.5 42.828125 45.03125 45.53125 
Q 48.578125 48.25 48.578125 53.8125 
Q 48.578125 59.328125 45.03125 62.0625 
Q 41.5 64.796875 34.28125 64.796875 
z
M 9.8125 72.90625 
L 35.015625 72.90625 
Q 46.296875 72.90625 52.390625 68.21875 
Q 58.5 63.53125 58.5 54.890625 
Q 58.5 48.1875 55.375 44.234375 
Q 52.25 40.28125 46.1875 39.3125 
Q 53.46875 37.75 57.5 32.78125 
Q 61.53125 27.828125 61.53125 20.40625 
Q 61.53125 10.640625 54.890625 5.3125 
Q 48.25 0 35.984375 0 
L 9.8125 0 
z
" id="DejaVuSans-66"/>
       <path id="DejaVuSans-32"/>
       <path d="M 56.203125 29.59375 
L 56.203125 25.203125 
L 14.890625 25.203125 
Q 15.484375 15.921875 20.484375 11.0625 
Q 25.484375 6.203125 34.421875 6.203125 
Q 39.59375 6.203125 44.453125 7.46875 
Q 49.3125 8.734375 54.109375 11.28125 
L 54.109375 2.78125 
Q 49.265625 0.734375 44.1875 -0.34375 
Q 39.109375 -1.421875 33.890625 -1.421875 
Q 20.796875 -1.421875 13.15625 6.1875 
Q 5.515625 13.8125 5.515625 26.8125 
Q 5.515625 40.234375 12.765625 48.109375 
Q 20.015625 56 32.328125 56 
Q 43.359375 56 49.78125 48.890625 
Q 56.203125 41.796875 56.203125 29.59375 
z
M 47.21875 32.234375 
Q 47.125 39.59375 43.09375 43.984375 
Q 39.0625 48.390625 32.421875 48.390625 
Q 24.90625 48.390625 20.390625 44.140625 
Q 15.875 39.890625 15.1875 32.171875 
z
" id="DejaVuSans-101"/>
      </defs>
      <use transform="translate(0 0.015625)" xlink:href="#DejaVuSans-Oblique-949"/>
      <use transform="translate(54.052734 -16.390625)scale(0.7)" xlink:href="#DejaVuSans-Oblique-110"/>
      <use transform="translate(101.152344 0.015625)" xlink:href="#DejaVuSans-40"/>
      <use transform="translate(140.166016 0.015625)" xlink:href="#DejaVuSans-Oblique-107"/>
      <use transform="translate(198.076172 0.015625)" xlink:href="#DejaVuSans-41"/>
      <use transform="translate(256.572266 0.015625)" xlink:href="#DejaVuSans-8722"/>
      <use transform="translate(359.84375 0.015625)" xlink:href="#DejaVuSans-Oblique-949"/>
      <use transform="translate(413.896484 -16.390625)scale(0.7)" xlink:href="#DejaVuSans-86"/>
      <use transform="translate(461.782227 -16.390625)scale(0.7)" xlink:href="#DejaVuSans-66"/>
      <use transform="translate(509.804688 -16.390625)scale(0.7)" xlink:href="#DejaVuSans-77"/>
      <use transform="translate(572.93457 0.015625)" xlink:href="#DejaVuSans-32"/>
      <use transform="translate(604.72168 0.015625)" xlink:href="#DejaVuSans-40"/>
      <use transform="translate(643.735352 0.015625)" xlink:href="#DejaVuSans-101"/>
      <use transform="translate(705.258789 0.015625)" xlink:href="#DejaVuSans-86"/>
      <use transform="translate(773.666992 0.015625)" xlink:href="#DejaVuSans-41"/>
     </g>
    </g>
   </g>
   <g id="line2d_12">
    <path clip-path="url(#pe5d3e91e4d)" d="M 0 0 
" style="fill:none;stroke:#ff0000;stroke-linecap:square;stroke-width:2;"/>
   </g>
   <g id="line2d_13">
    <path clip-path="url(#pe5d3e91e4d)" d="M 0 0 
" style="fill:none;stroke:#ff0000;stroke-linecap:square;stroke-width:2;"/>
   </g>
   <g id="line2d_14">
    <path clip-path="url(#pe5d3e91e4d)" d="M 0 0 
" style="fill:none;stroke:#ff0000;stroke-linecap:square;stroke-width:2;"/>
   </g>
   <g id="line2d_15">
    <path clip-path="url(#pe5d3e91e4d)" d="M 0 0 
" style="fill:none;stroke:#ff0000;stroke-linecap:square;stroke-width:2;"/>
   </g>
   <g id="line2d_16">
    <path clip-path="url(#pe5d3e91e4d)" d="M 0 0 
" style="fill:none;stroke:#ff0000;stroke-linecap:square;stroke-width:2;"/>
   </g>
   <g id="line2d_17">
    <path clip-path="url(#pe5d3e91e4d)" d="M 0 0 
" style="fill:none;stroke:#ff0000;stroke-linecap:square;stroke-width:2;"/>
   </g>
   <g id="line2d_18">
    <path clip-path="url(#pe5d3e91e4d)" d="M 0 0 
" style="fill:none;stroke:#ff0000;stroke-linecap:square;stroke-width:2;"/>
   </g>
   <g id="line2d_19">
    <path clip-path="url(#pe5d3e91e4d)" d="M 0 0 
" style="fill:none;stroke:#ff0000;stroke-linecap:square;stroke-width:2;"/>
   </g>
   <g id="line2d_20">
    <path clip-path="url(#pe5d3e91e4d)" d="M 0 0 
" style="fill:none;stroke:#ff0000;stroke-linecap:square;stroke-width:2;"/>
   </g>
   <g id="line2d_21">
    <path clip-path="url(#pe5d3e91e4d)" d="M 0 0 
" style="fill:none;stroke:#ff0000;stroke-linecap:square;stroke-width:2;"/>
   </g>
   <g id="line2d_22">
    <path clip-path="url(#pe5d3e91e4d)" d="M 70.710097 361 
L 81.610367 357.9606 
L 83.336015 357.6603 
L 85.061663 357.51708 
L 86.787311 357.62796 
L 88.512959 358.08996 
L 90.238606 358.92618 
L 93.385749 361 
M 211.030731 361 
L 219.086985 352.63836 
L 222.456107 349.3674 
L 225.825229 346.34592 
L 229.194351 343.61088 
L 232.563473 341.18076 
L 235.932596 339.06942 
L 239.301718 337.263 
L 242.67084 335.74764 
L 246.039962 334.491 
L 249.409084 333.47922 
L 252.778206 332.68458 
L 256.147328 332.0886 
L 259.516451 331.6728 
L 262.885573 331.42794 
L 266.254695 331.3494 
L 269.56673 331.42794 
L 272.878765 331.66356 
L 276.190801 332.0655 
L 279.502836 332.643 
L 282.814871 333.42378 
L 286.126906 334.43556 
L 289.438942 335.72916 
L 292.750977 337.3554 
L 296.063012 339.36972 
L 299.375048 341.8137 
L 302.687083 344.71506 
L 305.999118 348.04608 
L 309.311153 351.77442 
L 312.623189 355.81692 
L 316.652638 361 
M 364.764174 361 
L 365.615753 360.6864 
L 367.271771 360.20592 
L 368.927788 359.86866 
L 370.583806 359.68386 
L 372.239824 359.6469 
L 373.895841 359.76702 
L 375.551859 360.03036 
L 378.863894 360.9405 
L 379.029224 361 
L 379.029224 361 
" style="fill:none;stroke:#ff0000;stroke-linecap:square;stroke-width:2;"/>
   </g>
   <g id="line2d_23">
    <path clip-path="url(#pe5d3e91e4d)" d="M 70.69397 361 
L 81.610367 357.95598 
L 83.336015 357.65568 
L 85.061663 357.51246 
L 86.787311 357.62334 
L 88.512959 358.08534 
L 90.238606 358.92618 
L 93.391323 361 
M 211.021912 361 
L 219.086985 352.62912 
L 222.456107 349.36278 
L 225.825229 346.33668 
L 229.194351 343.60164 
L 232.563473 341.17614 
L 235.932596 339.0648 
L 239.301718 337.25838 
L 242.67084 335.7384 
L 246.039962 334.48638 
L 249.409084 333.4746 
L 252.778206 332.67996 
L 256.147328 332.07936 
L 259.516451 331.66818 
L 262.885573 331.42332 
L 266.254695 331.34016 
L 269.56673 331.4187 
L 272.878765 331.65432 
L 276.190801 332.05626 
L 279.502836 332.63838 
L 282.814871 333.41916 
L 286.126906 334.43094 
L 289.438942 335.71992 
L 292.750977 337.34616 
L 296.063012 339.36048 
L 299.375048 341.80908 
L 302.687083 344.70582 
L 305.999118 348.04146 
L 309.311153 351.7698 
L 312.623189 355.8123 
L 316.656191 361 
M 364.751628 361 
L 365.615753 360.68178 
L 367.271771 360.20592 
L 368.927788 359.86866 
L 370.583806 359.67924 
L 372.239824 359.6469 
L 373.895841 359.7624 
L 375.551859 360.03036 
L 377.207877 360.42768 
L 379.030515 361 
L 379.030515 361 
" style="fill:none;stroke:#ff0000;stroke-linecap:square;stroke-width:2;"/>
   </g>
   <g id="line2d_24">
    <path clip-path="url(#pe5d3e91e4d)" d="M 54 322.33116 
L 57.451296 322.52982 
L 59.176944 322.78854 
L 60.902592 323.16276 
L 62.62824 323.67096 
L 64.353888 324.33624 
L 66.079535 325.17246 
L 67.805183 326.20734 
L 69.530831 327.45474 
L 71.256479 328.92852 
L 72.982127 330.62868 
L 74.707775 332.5275 
L 78.159071 336.81948 
L 83.336015 343.6617 
L 85.061663 345.73146 
L 86.787311 347.49168 
L 88.512959 348.79452 
L 90.238606 349.56606 
L 91.964254 349.87098 
L 93.689902 349.8525 
L 95.41555 349.63536 
L 98.866846 348.89154 
L 105.769438 347.00196 
L 112.672029 345.18168 
L 116.123325 344.43786 
L 119.574621 343.87884 
L 123.025917 343.57392 
L 126.436126 343.57392 
L 129.805248 343.89732 
L 133.17437 344.5395 
L 136.543492 345.45888 
L 141.597176 347.20986 
L 151.704542 351.00288 
L 155.073664 352.06086 
L 158.442786 352.91556 
L 161.811908 353.5254 
L 165.181031 353.86728 
L 168.550153 353.9412 
L 171.919275 353.76102 
L 175.288397 353.35446 
L 178.657519 352.75848 
L 183.711202 351.57114 
L 188.764886 350.08812 
L 193.818569 348.351 
L 198.872252 346.39212 
L 205.610496 343.46766 
L 214.033302 339.46674 
L 229.194351 332.07012 
L 235.932596 329.0394 
L 240.986279 326.97426 
L 246.039962 325.14936 
L 251.093645 323.63862 
L 254.462767 322.83474 
L 257.831889 322.22028 
L 261.201012 321.79986 
L 264.570134 321.58734 
L 267.910712 321.58734 
L 271.222748 321.79062 
L 274.534783 322.19718 
L 277.846818 322.79316 
L 281.158854 323.5647 
L 286.126906 324.98766 
L 304.3431 330.68412 
L 309.311153 331.8114 
L 314.279206 332.64762 
L 319.247259 333.16044 
L 322.559294 333.30828 
L 325.87133 333.2898 
L 329.183365 333.09576 
L 332.4954 332.72154 
L 335.807436 332.17638 
L 339.119471 331.46952 
L 344.087524 330.12972 
L 350.711594 327.98604 
L 358.991683 325.2279 
L 363.959735 323.86038 
L 367.271771 323.17662 
L 370.583806 322.71 
L 373.895841 322.44204 
L 378.863894 322.30806 
L 388.8 322.33116 
L 388.8 322.33116 
" style="fill:none;stroke:#ff0000;stroke-linecap:square;stroke-width:2;"/>
   </g>
   <g id="line2d_25">
    <path clip-path="url(#pe5d3e91e4d)" d="M 54 322.33116 
L 57.451296 322.52982 
L 59.176944 322.78854 
L 60.902592 323.16276 
L 62.62824 323.67096 
L 64.353888 324.33162 
L 66.079535 325.17246 
L 67.805183 326.20272 
L 69.530831 327.45474 
L 71.256479 328.92852 
L 72.982127 330.62406 
L 74.707775 332.5275 
L 78.159071 336.81486 
L 83.336015 343.65708 
L 85.061663 345.72684 
L 86.787311 347.48706 
L 88.512959 348.7899 
L 90.238606 349.56144 
L 91.964254 349.86636 
L 93.689902 349.84788 
L 95.41555 349.63074 
L 98.866846 348.88692 
L 105.769438 347.00196 
L 112.672029 345.17706 
L 116.123325 344.43324 
L 119.574621 343.87884 
L 123.025917 343.57392 
L 126.436126 343.57392 
L 129.805248 343.8927 
L 133.17437 344.53488 
L 136.543492 345.45426 
L 139.912615 346.58616 
L 153.389103 351.55266 
L 156.758225 352.51824 
L 160.127347 353.25282 
L 163.49647 353.72868 
L 166.865592 353.93658 
L 170.234714 353.88114 
L 173.603836 353.58084 
L 176.972958 353.07726 
L 180.34208 352.39812 
L 185.395763 351.10452 
L 190.449447 349.53372 
L 195.50313 347.71806 
L 200.556813 345.68526 
L 207.295057 342.68688 
L 215.717863 338.63052 
L 229.194351 332.0655 
L 235.932596 329.03478 
L 240.986279 326.96964 
L 246.039962 325.14936 
L 249.409084 324.10062 
L 252.778206 323.21358 
L 256.147328 322.49748 
L 259.516451 321.98004 
L 262.885573 321.66126 
L 266.254695 321.555 
L 269.56673 321.65664 
L 272.878765 321.96618 
L 276.190801 322.46514 
L 279.502836 323.15352 
L 284.470889 324.47946 
L 291.094959 326.60466 
L 299.375048 329.29812 
L 304.3431 330.6795 
L 309.311153 331.80216 
L 314.279206 332.63838 
L 317.591242 333.02184 
L 320.903277 333.24822 
L 324.215312 333.3129 
L 327.527347 333.20664 
L 330.839383 332.92482 
L 334.151418 332.46744 
L 337.463453 331.8345 
L 342.431506 330.60096 
L 347.399559 329.0856 
L 362.303718 324.27156 
L 365.615753 323.49078 
L 368.927788 322.91328 
L 372.239824 322.5483 
L 377.207877 322.32654 
L 385.487965 322.32192 
L 388.8 322.33116 
L 388.8 322.33116 
" style="fill:none;stroke:#ff0000;stroke-linecap:square;stroke-width:2;"/>
   </g>
   <g id="line2d_26">
    <path clip-path="url(#pe5d3e91e4d)" d="M 54 292.67076 
L 55.725648 292.76778 
L 57.451296 293.05422 
L 59.176944 293.54856 
L 60.902592 294.26466 
L 62.62824 295.20714 
L 64.353888 296.35752 
L 72.982127 302.73774 
L 74.707775 303.71718 
L 76.433423 304.5303 
L 78.159071 305.19558 
L 81.610367 306.13344 
L 85.061663 306.69246 
L 90.238606 307.12212 
L 98.866846 307.70886 
L 104.04379 308.33718 
L 110.946382 309.50604 
L 117.848973 310.66104 
L 121.300269 311.03988 
L 124.751565 311.1831 
L 128.120687 311.03064 
L 131.489809 310.56402 
L 134.858931 309.78786 
L 138.228053 308.74374 
L 141.597176 307.49172 
L 146.650859 305.3619 
L 156.758225 301.01448 
L 160.127347 299.80866 
L 163.49647 298.88928 
L 166.865592 298.32102 
L 170.234714 298.1316 
L 173.603836 298.26096 
L 178.657519 298.83384 
L 185.395763 299.66544 
L 188.764886 299.90106 
L 192.134008 299.92878 
L 195.50313 299.71164 
L 198.872252 299.2173 
L 202.241374 298.42728 
L 205.610496 297.31848 
L 208.979618 295.87704 
L 212.348741 294.0891 
L 215.717863 291.9408 
L 219.086985 289.42752 
L 222.456107 286.56312 
L 225.825229 283.37532 
L 229.194351 279.91956 
L 234.248034 274.38018 
L 242.67084 265.01544 
L 246.039962 261.52734 
L 249.409084 258.34416 
L 252.778206 255.56292 
L 254.462767 254.34786 
L 256.147328 253.2714 
L 257.831889 252.33816 
L 259.516451 251.55738 
L 261.201012 250.9383 
L 262.885573 250.49478 
L 264.570134 250.2222 
L 266.254695 250.1298 
L 267.910712 250.21758 
L 269.56673 250.48092 
L 271.222748 250.9152 
L 272.878765 251.51118 
L 274.534783 252.26424 
L 276.190801 253.16976 
L 279.502836 255.38736 
L 282.814871 258.08544 
L 286.126906 261.1716 
L 289.438942 264.55344 
L 296.063012 271.78374 
L 302.687083 278.94936 
L 305.999118 282.28038 
L 309.311153 285.3573 
L 312.623189 288.14316 
L 315.935224 290.61486 
L 319.247259 292.78164 
L 322.559294 294.64812 
L 325.87133 296.23278 
L 329.183365 297.55872 
L 332.4954 298.6398 
L 335.807436 299.4945 
L 339.119471 300.13206 
L 342.431506 300.56172 
L 345.743541 300.79272 
L 349.055577 300.82968 
L 352.367612 300.68646 
L 357.335665 300.18288 
L 363.959735 299.21268 
L 370.583806 298.07616 
L 373.895841 297.28614 
L 377.207877 296.23278 
L 385.487965 293.14662 
L 387.143982 292.7955 
L 388.8 292.67076 
L 388.8 292.67076 
" style="fill:none;stroke:#ff0000;stroke-linecap:square;stroke-width:2;"/>
   </g>
   <g id="line2d_27">
    <path clip-path="url(#pe5d3e91e4d)" d="M 54 292.67076 
L 55.725648 292.76316 
L 57.451296 293.0496 
L 59.176944 293.54394 
L 60.902592 294.26466 
L 62.62824 295.20714 
L 64.353888 296.35752 
L 72.982127 302.73774 
L 74.707775 303.71256 
L 76.433423 304.5303 
L 78.159071 305.19096 
L 79.884719 305.72226 
L 83.336015 306.4476 
L 86.787311 306.86802 
L 93.689902 307.32078 
L 98.866846 307.70424 
L 104.04379 308.33256 
L 109.220734 309.18726 
L 117.848973 310.65642 
L 121.300269 311.03526 
L 124.751565 311.17848 
L 128.120687 311.02602 
L 131.489809 310.5594 
L 134.858931 309.78324 
L 138.228053 308.73912 
L 141.597176 307.4871 
L 146.650859 305.3619 
L 156.758225 301.00986 
L 160.127347 299.80866 
L 163.49647 298.88466 
L 166.865592 298.3164 
L 170.234714 298.12698 
L 173.603836 298.25634 
L 178.657519 298.8246 
L 185.395763 299.6562 
L 188.764886 299.8872 
L 192.134008 299.91954 
L 195.50313 299.69778 
L 198.872252 299.20806 
L 202.241374 298.41342 
L 205.610496 297.30924 
L 208.979618 295.8678 
L 212.348741 294.07986 
L 215.717863 291.93156 
L 219.086985 289.4229 
L 222.456107 286.5585 
L 225.825229 283.3707 
L 229.194351 279.91494 
L 234.248034 274.38018 
L 242.67084 265.01544 
L 246.039962 261.52272 
L 249.409084 258.33954 
L 252.778206 255.5583 
L 256.147328 253.26678 
L 257.831889 252.33354 
L 259.516451 251.55276 
L 261.201012 250.9383 
L 262.885573 250.49016 
L 264.570134 250.21758 
L 266.254695 250.1298 
L 267.910712 250.21758 
L 269.56673 250.4763 
L 271.222748 250.91058 
L 272.878765 251.50656 
L 274.534783 252.25962 
L 276.190801 253.16514 
L 279.502836 255.38274 
L 282.814871 258.08082 
L 286.126906 261.16698 
L 289.438942 264.54882 
L 296.063012 271.77912 
L 302.687083 278.94474 
L 305.999118 282.27576 
L 309.311153 285.35268 
L 312.623189 288.13854 
L 315.935224 290.61024 
L 319.247259 292.77702 
L 322.559294 294.6435 
L 325.87133 296.22816 
L 329.183365 297.5541 
L 332.4954 298.63056 
L 335.807436 299.48526 
L 339.119471 300.12282 
L 342.431506 300.55248 
L 345.743541 300.78348 
L 349.055577 300.82044 
L 352.367612 300.67722 
L 357.335665 300.17364 
L 363.959735 299.20806 
L 370.583806 298.07154 
L 373.895841 297.28152 
L 377.207877 296.22816 
L 385.487965 293.14662 
L 387.143982 292.7955 
L 388.8 292.67076 
L 388.8 292.67076 
" style="fill:none;stroke:#ff0000;stroke-linecap:square;stroke-width:2;"/>
   </g>
   <g id="line2d_28">
    <path clip-path="url(#pe5d3e91e4d)" d="M 54 278.03922 
L 55.725648 278.5659 
L 57.451296 279.81792 
L 62.62824 284.23926 
L 64.353888 285.44508 
L 66.079535 286.45686 
L 69.530831 288.04614 
L 72.982127 289.27506 
L 78.159071 290.81352 
L 85.061663 292.59684 
L 90.238606 293.73798 
L 95.41555 294.6435 
L 100.592494 295.27644 
L 105.769438 295.683 
L 119.574621 296.3991 
L 124.751565 296.52384 
L 128.120687 296.44068 
L 131.489809 296.13576 
L 134.858931 295.53516 
L 138.228053 294.56496 
L 141.597176 293.16972 
L 144.966298 291.3171 
L 148.33542 289.01172 
L 151.704542 286.28592 
L 155.073664 283.21362 
L 160.127347 278.14086 
L 180.34208 256.90272 
L 185.395763 250.91058 
L 192.134008 242.4606 
L 198.872252 234.0753 
L 202.241374 230.14368 
L 205.610496 226.51698 
L 208.979618 223.28298 
L 212.348741 220.50174 
L 215.717863 218.23794 
L 217.402424 217.31394 
L 219.086985 216.53316 
L 220.771546 215.90022 
L 222.456107 215.42898 
L 224.140668 215.1102 
L 225.825229 214.95774 
L 227.50979 214.96236 
L 229.194351 215.11944 
L 230.878912 215.41974 
L 234.248034 216.37146 
L 237.617157 217.68816 
L 242.67084 220.01202 
L 249.409084 223.15824 
L 252.778206 224.55348 
L 256.147328 225.7362 
L 259.516451 226.64172 
L 262.885573 227.2146 
L 266.254695 227.40864 
L 269.56673 227.21922 
L 272.878765 226.66482 
L 276.190801 225.78702 
L 279.502836 224.64588 
L 282.814871 223.29222 
L 289.438942 220.24302 
L 294.406995 218.01156 
L 297.71903 216.76416 
L 301.031065 215.86788 
L 302.687083 215.5953 
L 304.3431 215.44746 
L 305.999118 215.44284 
L 307.655136 215.58144 
L 309.311153 215.86788 
L 310.967171 216.29754 
L 312.623189 216.87504 
L 314.279206 217.59576 
L 315.935224 218.45508 
L 317.591242 219.453 
L 319.247259 220.58952 
L 320.903277 221.86926 
L 324.215312 224.84916 
L 327.527347 228.38808 
L 330.839383 232.44906 
L 334.151418 236.96742 
L 337.463453 241.84152 
L 344.087524 252.13026 
L 349.055577 259.78098 
L 352.367612 264.57192 
L 355.679647 268.92396 
L 357.335665 270.87822 
L 358.991683 272.6523 
L 360.6477 274.21848 
L 362.303718 275.55828 
L 363.959735 276.64398 
L 365.615753 277.46634 
L 367.271771 278.01612 
L 368.927788 278.29794 
L 370.583806 278.32566 
L 372.239824 278.13162 
L 373.895841 277.75278 
L 378.863894 276.14964 
L 380.519912 275.9094 
L 382.175929 276.14964 
L 387.143982 277.86828 
L 388.8 278.03922 
L 388.8 278.03922 
" style="fill:none;stroke:#ff0000;stroke-linecap:square;stroke-width:2;"/>
   </g>
   <g id="line2d_29">
    <path clip-path="url(#pe5d3e91e4d)" d="M 54 278.0346 
L 55.725648 278.56128 
L 57.451296 279.8133 
L 62.62824 284.23464 
L 64.353888 285.43584 
L 66.079535 286.45224 
L 69.530831 288.04152 
L 72.982127 289.27044 
L 78.159071 290.81352 
L 85.061663 292.59684 
L 90.238606 293.73336 
L 95.41555 294.6435 
L 100.592494 295.27644 
L 105.769438 295.683 
L 119.574621 296.39448 
L 124.751565 296.51922 
L 128.120687 296.43606 
L 131.489809 296.13576 
L 134.858931 295.53516 
L 138.228053 294.56496 
L 141.597176 293.16972 
L 144.966298 291.3171 
L 148.33542 289.01172 
L 151.704542 286.28592 
L 155.073664 283.21362 
L 160.127347 278.13624 
L 178.657519 258.79692 
L 183.711202 252.95262 
L 190.449447 244.59504 
L 198.872252 234.07068 
L 202.241374 230.13906 
L 205.610496 226.51236 
L 208.979618 223.27836 
L 212.348741 220.50174 
L 215.717863 218.23332 
L 217.402424 217.30932 
L 219.086985 216.52854 
L 220.771546 215.90022 
L 222.456107 215.42436 
L 224.140668 215.1102 
L 225.825229 214.95774 
L 227.50979 214.96236 
L 229.194351 215.11944 
L 230.878912 215.41512 
L 234.248034 216.37146 
L 237.617157 217.68354 
L 242.67084 220.0074 
L 249.409084 223.15362 
L 252.778206 224.54886 
L 256.147328 225.73158 
L 259.516451 226.6371 
L 262.885573 227.20998 
L 266.254695 227.40402 
L 269.56673 227.2146 
L 272.878765 226.6602 
L 276.190801 225.78702 
L 279.502836 224.64126 
L 282.814871 223.2876 
L 289.438942 220.2384 
L 294.406995 218.00694 
L 297.71903 216.75954 
L 301.031065 215.86788 
L 302.687083 215.59068 
L 304.3431 215.44746 
L 305.999118 215.44284 
L 307.655136 215.58144 
L 309.311153 215.86788 
L 310.967171 216.29754 
L 312.623189 216.87504 
L 314.279206 217.59114 
L 315.935224 218.45046 
L 317.591242 219.44838 
L 319.247259 220.58952 
L 322.559294 223.2876 
L 325.87133 226.54932 
L 329.183365 230.35158 
L 332.4954 234.6528 
L 335.807436 239.36058 
L 340.775489 246.93738 
L 349.055577 259.77636 
L 352.367612 264.5673 
L 355.679647 268.91934 
L 357.335665 270.8736 
L 358.991683 272.64768 
L 360.6477 274.21386 
L 362.303718 275.55366 
L 363.959735 276.63936 
L 365.615753 277.4571 
L 367.271771 278.00688 
L 368.927788 278.2887 
L 370.583806 278.31642 
L 372.239824 278.12238 
L 373.895841 277.73892 
L 378.863894 276.1404 
L 380.519912 275.90478 
L 382.175929 276.14502 
L 387.143982 277.86366 
L 388.8 278.0346 
L 388.8 278.0346 
" style="fill:none;stroke:#ff0000;stroke-linecap:square;stroke-width:2;"/>
   </g>
   <g id="line2d_30">
    <path clip-path="url(#pe5d3e91e4d)" d="M 54 270.3885 
L 55.725648 269.85258 
L 57.451296 268.56822 
L 64.353888 262.17876 
L 67.805183 259.49916 
L 71.256479 257.27232 
L 74.707775 255.37812 
L 79.884719 252.9018 
L 85.061663 250.7304 
L 90.238606 248.8362 
L 95.41555 247.22382 
L 100.592494 245.85168 
L 119.574621 241.3518 
L 123.025917 240.76968 
L 124.751565 240.67728 
L 126.436126 240.77892 
L 128.120687 241.08384 
L 129.805248 241.58742 
L 131.489809 242.26194 
L 134.858931 243.99444 
L 138.228053 246.05958 
L 144.966298 250.6149 
L 150.019981 253.91358 
L 153.389103 255.8124 
L 155.073664 256.60704 
L 156.758225 257.2677 
L 158.442786 257.77128 
L 160.127347 258.09006 
L 161.811908 258.19632 
L 163.49647 258.06234 
L 165.181031 257.66964 
L 166.865592 257.00898 
L 168.550153 256.07574 
L 170.234714 254.87916 
L 171.919275 253.44696 
L 173.603836 251.81148 
L 176.972958 248.05542 
L 180.34208 243.87432 
L 187.080325 234.9531 
L 195.50313 223.8189 
L 200.556813 217.48026 
L 205.610496 211.5759 
L 208.979618 207.9954 
L 212.348741 204.8538 
L 214.033302 203.50476 
L 215.717863 202.34976 
L 217.402424 201.4119 
L 219.086985 200.70042 
L 220.771546 200.20608 
L 222.456107 199.89192 
L 225.825229 199.60548 
L 237.617157 199.10652 
L 249.409084 198.43662 
L 257.831889 198.2241 
L 269.56673 198.18252 
L 279.502836 198.3165 
L 287.782924 198.62604 
L 299.375048 199.125 
L 305.999118 199.29132 
L 309.311153 199.587 
L 310.967171 199.86882 
L 312.623189 200.28 
L 314.279206 200.83902 
L 315.935224 201.55974 
L 317.591242 202.44678 
L 319.247259 203.4909 
L 320.903277 204.68748 
L 324.215312 207.46872 
L 327.527347 210.6519 
L 332.4954 215.90946 
L 337.463453 221.51352 
L 344.087524 229.30746 
L 352.367612 239.45298 
L 368.927788 260.00274 
L 373.895841 265.68072 
L 377.207877 268.99326 
L 378.863894 270.32382 
L 380.519912 271.21086 
L 382.175929 271.46958 
L 383.831947 271.23396 
L 387.143982 270.51324 
L 388.8 270.3885 
L 388.8 270.3885 
" style="fill:none;stroke:#ff0000;stroke-linecap:square;stroke-width:2;"/>
   </g>
   <g id="line2d_31">
    <path clip-path="url(#pe5d3e91e4d)" d="M 54 270.37464 
L 55.725648 269.83872 
L 57.451296 268.55436 
L 64.353888 262.16952 
L 67.805183 259.49454 
L 71.256479 257.27232 
L 74.707775 255.3735 
L 79.884719 252.9018 
L 85.061663 250.72578 
L 90.238606 248.83158 
L 95.41555 247.2192 
L 100.592494 245.84706 
L 119.574621 241.34718 
L 123.025917 240.76506 
L 124.751565 240.67728 
L 126.436126 240.7743 
L 128.120687 241.07922 
L 129.805248 241.5828 
L 131.489809 242.2527 
L 134.858931 243.9852 
L 138.228053 246.05496 
L 144.966298 250.60566 
L 150.019981 253.90896 
L 153.389103 255.80316 
L 155.073664 256.60242 
L 156.758225 257.26308 
L 158.442786 257.76666 
L 160.127347 258.08544 
L 161.811908 258.1917 
L 163.49647 258.05772 
L 165.181031 257.66964 
L 166.865592 257.00436 
L 168.550153 256.07112 
L 170.234714 254.87916 
L 171.919275 253.44696 
L 173.603836 251.80686 
L 176.972958 248.0508 
L 180.34208 243.8697 
L 187.080325 234.94848 
L 195.50313 223.81428 
L 200.556813 217.47564 
L 205.610496 211.57128 
L 208.979618 207.99078 
L 212.348741 204.84918 
L 214.033302 203.50476 
L 215.717863 202.34976 
L 217.402424 201.40728 
L 219.086985 200.70042 
L 220.771546 200.20608 
L 222.456107 199.89192 
L 225.825229 199.60548 
L 237.617157 199.10652 
L 249.409084 198.432 
L 257.831889 198.2241 
L 269.56673 198.18252 
L 281.158854 198.35808 
L 291.094959 198.79236 
L 301.031065 199.15734 
L 307.655136 199.39758 
L 310.967171 199.8642 
L 312.623189 200.27538 
L 314.279206 200.83902 
L 315.935224 201.55974 
L 317.591242 202.44216 
L 319.247259 203.4909 
L 322.559294 206.01804 
L 325.87133 209.01642 
L 329.183365 212.35206 
L 334.151418 217.74822 
L 340.775489 225.3666 
L 347.399559 233.31762 
L 357.335665 245.66226 
L 367.271771 258.0069 
L 372.239824 263.84658 
L 375.551859 267.4086 
L 377.207877 268.98864 
L 378.863894 270.31458 
L 380.519912 271.20162 
L 382.175929 271.46034 
L 383.831947 271.2201 
L 387.143982 270.49476 
L 388.8 270.37464 
L 388.8 270.37464 
" style="fill:none;stroke:#ff0000;stroke-linecap:square;stroke-width:2;"/>
   </g>
   <g id="line2d_32">
    <path clip-path="url(#pe5d3e91e4d)" d="M 54 253.27602 
L 55.725648 253.19748 
L 57.451296 252.97572 
L 59.176944 252.59688 
L 60.902592 252.06558 
L 62.62824 251.37258 
L 64.353888 250.52712 
L 66.079535 249.53844 
L 69.530831 247.20996 
L 81.610367 238.37652 
L 85.061663 236.2698 
L 88.512959 234.46338 
L 91.964254 232.97574 
L 95.41555 231.81612 
L 98.866846 230.9799 
L 102.318142 230.4717 
L 105.769438 230.27304 
L 109.220734 230.37006 
L 112.672029 230.73966 
L 116.123325 231.31254 
L 121.300269 232.27812 
L 123.025917 232.49526 
L 124.751565 232.57842 
L 126.436126 232.48602 
L 128.120687 232.19958 
L 129.805248 231.7191 
L 131.489809 231.0723 
L 134.858931 229.40448 
L 138.228053 227.39016 
L 143.281737 223.98984 
L 150.019981 219.0834 
L 161.811908 210.40704 
L 166.865592 206.91432 
L 171.919275 203.67108 
L 176.972958 200.75586 
L 180.34208 199.01874 
L 183.711202 197.46642 
L 187.080325 196.11738 
L 190.449447 194.97624 
L 193.818569 194.05224 
L 197.187691 193.35 
L 200.556813 192.8649 
L 203.925935 192.58308 
L 208.979618 192.43986 
L 214.033302 192.31974 
L 217.402424 191.92704 
L 219.086985 191.56206 
L 222.456107 190.51332 
L 230.878912 187.4364 
L 234.248034 186.42 
L 239.301718 185.1726 
L 244.355401 184.16544 
L 251.093645 183.05664 
L 257.831889 182.22504 
L 262.885573 181.87392 
L 267.910712 181.81848 
L 272.878765 182.06796 
L 277.846818 182.57616 
L 284.470889 183.52326 
L 291.094959 184.6875 
L 296.063012 185.71314 
L 301.031065 186.92358 
L 305.999118 188.35116 
L 312.623189 190.50408 
L 317.591242 192.27816 
L 320.903277 193.64106 
L 324.215312 195.23034 
L 327.527347 197.08296 
L 330.839383 199.19892 
L 334.151418 201.5505 
L 337.463453 204.10998 
L 342.431506 208.31418 
L 347.399559 212.90646 
L 352.367612 217.8591 
L 357.335665 223.13052 
L 363.959735 230.54562 
L 375.551859 243.74958 
L 378.863894 247.21458 
L 382.175929 250.23606 
L 383.831947 251.47422 
L 385.487965 252.43518 
L 387.143982 253.05888 
L 388.8 253.27602 
L 388.8 253.27602 
" style="fill:none;stroke:#ff0000;stroke-linecap:square;stroke-width:2;"/>
   </g>
   <g id="line2d_33">
    <path clip-path="url(#pe5d3e91e4d)" d="M 54 253.2714 
L 55.725648 253.19748 
L 57.451296 252.9711 
L 59.176944 252.59688 
L 60.902592 252.06558 
L 62.62824 251.37258 
L 64.353888 250.52712 
L 67.805183 248.41578 
L 71.256479 245.9256 
L 79.884719 239.52228 
L 83.336015 237.28158 
L 86.787311 235.31808 
L 90.238606 233.66874 
L 93.689902 232.34742 
L 97.141198 231.3495 
L 100.592494 230.67498 
L 104.04379 230.32386 
L 107.495086 230.27766 
L 110.946382 230.5179 
L 114.397677 230.99838 
L 123.025917 232.49064 
L 124.751565 232.5738 
L 126.436126 232.4814 
L 128.120687 232.19034 
L 129.805248 231.70986 
L 131.489809 231.06306 
L 134.858931 229.39524 
L 138.228053 227.38554 
L 143.281737 223.9806 
L 150.019981 219.07416 
L 161.811908 210.3978 
L 166.865592 206.90508 
L 171.919275 203.66646 
L 176.972958 200.75124 
L 180.34208 199.01412 
L 183.711202 197.4618 
L 187.080325 196.10814 
L 190.449447 194.967 
L 193.818569 194.04762 
L 197.187691 193.34538 
L 200.556813 192.86028 
L 203.925935 192.57846 
L 208.979618 192.43524 
L 214.033302 192.31512 
L 217.402424 191.92242 
L 220.771546 191.08158 
L 225.825229 189.24744 
L 230.878912 187.43178 
L 235.932596 185.96724 
L 240.986279 184.81224 
L 246.039962 183.86052 
L 252.778206 182.8164 
L 257.831889 182.22504 
L 262.885573 181.8693 
L 267.910712 181.81386 
L 272.878765 182.06796 
L 277.846818 182.57154 
L 284.470889 183.52326 
L 291.094959 184.6875 
L 297.71903 186.09198 
L 302.687083 187.37634 
L 307.655136 188.86398 
L 315.935224 191.65908 
L 319.247259 192.9342 
L 322.559294 194.39874 
L 325.87133 196.122 
L 329.183365 198.1086 
L 332.4954 200.34468 
L 335.807436 202.80252 
L 339.119471 205.46364 
L 344.087524 209.7972 
L 349.055577 214.51422 
L 354.02363 219.57774 
L 358.991683 224.94618 
L 365.615753 232.43982 
L 375.551859 243.74496 
L 378.863894 247.20996 
L 382.175929 250.23606 
L 383.831947 251.4696 
L 385.487965 252.43518 
L 387.143982 253.05426 
L 388.8 253.2714 
L 388.8 253.2714 
" style="fill:none;stroke:#ff0000;stroke-linecap:square;stroke-width:2;"/>
   </g>
   <g id="line2d_34">
    <path clip-path="url(#pe5d3e91e4d)" d="M 54 80.57118 
L 59.176944 80.72364 
L 62.62824 81.01008 
L 66.079535 81.47208 
L 69.530831 82.20666 
L 71.256479 82.79802 
L 72.982127 83.7636 
L 74.707775 85.28358 
L 76.433423 87.19164 
L 86.787311 99.63792 
L 90.238606 103.27848 
L 93.689902 106.44318 
L 95.41555 107.81532 
L 97.141198 109.03962 
L 98.866846 110.10684 
L 100.592494 111.01698 
L 102.318142 111.7608 
L 104.04379 112.34292 
L 105.769438 112.75872 
L 107.495086 113.01744 
L 109.220734 113.11908 
L 110.946382 113.06826 
L 112.672029 112.8696 
L 114.397677 112.53234 
L 116.123325 112.06572 
L 119.574621 110.78136 
L 124.751565 108.30042 
L 126.436126 109.09968 
L 131.489809 111.8532 
L 136.543492 114.32952 
L 141.597176 116.46858 
L 144.966298 117.68826 
L 148.33542 118.73238 
L 151.704542 119.58708 
L 155.073664 120.25698 
L 158.442786 120.72822 
L 161.811908 120.99618 
L 165.181031 121.05162 
L 168.550153 120.88068 
L 171.919275 120.47874 
L 175.288397 119.8227 
L 178.657519 118.90794 
L 182.026641 117.71598 
L 185.395763 116.23758 
L 188.764886 114.4635 
L 192.134008 112.39374 
L 197.187691 108.97494 
L 198.872252 108.39282 
L 200.556813 108.9426 
L 205.610496 111.45588 
L 207.295057 112.10268 
L 208.979618 112.60164 
L 210.66418 112.93428 
L 212.348741 113.08674 
L 214.033302 113.04054 
L 215.717863 112.78644 
L 217.402424 112.3152 
L 219.086985 111.6222 
L 220.771546 110.70282 
L 222.456107 109.55244 
L 224.140668 108.18492 
L 225.825229 106.60488 
L 227.50979 104.82156 
L 230.878912 100.70514 
L 234.248034 95.97426 
L 237.617157 90.78138 
L 244.355401 79.73034 
L 249.409084 71.64072 
L 252.778206 66.762 
L 254.462767 64.57212 
L 256.147328 62.59014 
L 257.831889 60.86226 
L 259.516451 59.43006 
L 261.201012 58.3305 
L 262.885573 57.60516 
L 264.570134 57.21708 
L 266.254695 57.10158 
L 267.910712 57.21246 
L 269.56673 57.58668 
L 271.222748 58.28892 
L 272.878765 59.35614 
L 274.534783 60.756 
L 276.190801 62.45616 
L 277.846818 64.41504 
L 279.502836 66.60954 
L 282.814871 71.5668 
L 286.126906 77.10618 
L 291.094959 86.0967 
L 301.031065 104.40576 
L 304.3431 110.0052 
L 307.655136 115.05486 
L 309.311153 117.31866 
L 310.967171 119.36994 
L 312.623189 121.19484 
L 314.279206 122.77488 
L 315.935224 124.08696 
L 317.591242 125.12646 
L 319.247259 125.88414 
L 320.903277 126.36 
L 322.559294 126.56328 
L 324.215312 126.50322 
L 325.87133 126.19368 
L 327.527347 125.65314 
L 329.183365 124.90932 
L 330.839383 123.97608 
L 332.4954 122.87652 
L 335.807436 120.27084 
L 339.119471 117.24012 
L 344.087524 112.19508 
L 357.335665 98.16414 
L 360.6477 94.93938 
L 363.959735 91.94562 
L 367.271771 89.23368 
L 370.583806 86.84052 
L 373.895841 84.8031 
L 377.207877 83.14914 
L 380.519912 81.8925 
L 383.831947 81.04704 
L 387.143982 80.622 
L 388.8 80.57118 
L 388.8 80.57118 
" style="fill:none;stroke:#ff0000;stroke-linecap:square;stroke-width:2;"/>
   </g>
   <g id="line2d_35">
    <path clip-path="url(#pe5d3e91e4d)" d="M 54 80.57118 
L 59.176944 80.72364 
L 62.62824 81.01008 
L 66.079535 81.47208 
L 69.530831 82.20666 
L 71.256479 82.79802 
L 72.982127 83.7636 
L 74.707775 85.27896 
L 78.159071 89.25678 
L 85.061663 97.66056 
L 88.512959 101.5044 
L 91.964254 104.91858 
L 95.41555 107.8107 
L 97.141198 109.035 
L 98.866846 110.10222 
L 100.592494 111.00774 
L 102.318142 111.75618 
L 104.04379 112.33368 
L 105.769438 112.7541 
L 107.495086 113.01282 
L 109.220734 113.10984 
L 110.946382 113.05902 
L 112.672029 112.86498 
L 114.397677 112.52772 
L 116.123325 112.0611 
L 119.574621 110.77674 
L 124.751565 108.2958 
L 126.436126 109.09506 
L 131.489809 111.84858 
L 136.543492 114.3249 
L 141.597176 116.46396 
L 144.966298 117.68364 
L 148.33542 118.72314 
L 151.704542 119.58246 
L 155.073664 120.25236 
L 158.442786 120.7236 
L 161.811908 120.98694 
L 165.181031 121.04238 
L 168.550153 120.87606 
L 171.919275 120.4695 
L 175.288397 119.81808 
L 178.657519 118.90332 
L 182.026641 117.71136 
L 185.395763 116.23296 
L 188.764886 114.45426 
L 192.134008 112.38912 
L 197.187691 108.97032 
L 198.872252 108.39282 
L 200.556813 108.93798 
L 205.610496 111.45126 
L 207.295057 112.09806 
L 208.979618 112.59702 
L 210.66418 112.93428 
L 212.348741 113.08212 
L 214.033302 113.04054 
L 215.717863 112.78644 
L 217.402424 112.3152 
L 219.086985 111.61758 
L 220.771546 110.6982 
L 222.456107 109.55244 
L 224.140668 108.18492 
L 225.825229 106.60026 
L 227.50979 104.81694 
L 229.194351 102.84882 
L 232.563473 98.40438 
L 235.932596 93.4194 
L 240.986279 85.30206 
L 247.724523 74.26488 
L 251.093645 69.12282 
L 254.462767 64.5675 
L 256.147328 62.58552 
L 257.831889 60.86226 
L 259.516451 59.42544 
L 261.201012 58.3305 
L 262.885573 57.60054 
L 264.570134 57.21246 
L 266.254695 57.09696 
L 267.910712 57.20784 
L 269.56673 57.58206 
L 271.222748 58.2843 
L 272.878765 59.3469 
L 274.534783 60.75138 
L 276.190801 62.45154 
L 277.846818 64.41042 
L 279.502836 66.60492 
L 282.814871 71.56218 
L 286.126906 77.10156 
L 291.094959 86.09208 
L 299.375048 101.45358 
L 302.687083 107.2563 
L 305.999118 112.60626 
L 309.311153 117.31404 
L 310.967171 119.36994 
L 312.623189 121.19484 
L 314.279206 122.77026 
L 315.935224 124.08696 
L 317.591242 125.12646 
L 319.247259 125.88414 
L 320.903277 126.36 
L 322.559294 126.55866 
L 324.215312 126.4986 
L 325.87133 126.18906 
L 327.527347 125.65314 
L 329.183365 124.9047 
L 330.839383 123.97146 
L 332.4954 122.87652 
L 335.807436 120.27084 
L 339.119471 117.24012 
L 344.087524 112.19508 
L 357.335665 98.16414 
L 360.6477 94.93476 
L 363.959735 91.94562 
L 367.271771 89.23368 
L 370.583806 86.84052 
L 373.895841 84.8031 
L 377.207877 83.14914 
L 380.519912 81.8925 
L 383.831947 81.04704 
L 387.143982 80.622 
L 388.8 80.57118 
L 388.8 80.57118 
" style="fill:none;stroke:#ff0000;stroke-linecap:square;stroke-width:2;"/>
   </g>
   <g id="line2d_36">
    <path clip-path="url(#pe5d3e91e4d)" d="M 54 68.02788 
L 55.725648 68.16648 
L 57.451296 68.57766 
L 59.176944 69.2568 
L 60.902592 70.18542 
L 62.62824 71.34966 
L 64.353888 72.71718 
L 67.805183 75.94656 
L 71.256479 79.44852 
L 72.982127 80.94078 
L 74.707775 81.98028 
L 78.159071 83.32932 
L 85.061663 85.83336 
L 90.238606 88.0371 
L 95.41555 90.55962 
L 100.592494 93.36858 
L 107.495086 97.4619 
L 123.025917 107.06688 
L 124.751565 107.90772 
L 126.436126 107.06688 
L 129.805248 104.89086 
L 138.228053 98.9865 
L 143.281737 95.55384 
L 146.650859 93.47946 
L 150.019981 91.6638 
L 153.389103 90.16692 
L 156.758225 89.0535 
L 158.442786 88.65156 
L 161.811908 88.18956 
L 163.49647 88.13412 
L 165.181031 88.1988 
L 166.865592 88.3836 
L 168.550153 88.6839 
L 170.234714 89.0997 
L 173.603836 90.2778 
L 176.972958 91.86708 
L 180.34208 93.82134 
L 183.711202 96.06666 
L 188.764886 99.795 
L 195.50313 104.83542 
L 197.187691 105.87492 
L 198.872252 106.24452 
L 200.556813 105.35286 
L 202.241374 103.9761 
L 205.610496 100.83912 
L 210.66418 95.66472 
L 217.402424 88.31892 
L 225.825229 79.15284 
L 230.878912 74.0154 
L 234.248034 70.85994 
L 237.617157 67.95858 
L 240.986279 65.3529 
L 244.355401 63.06138 
L 247.724523 61.10712 
L 251.093645 59.48088 
L 254.462767 58.18728 
L 257.831889 57.18936 
L 262.885573 56.08056 
L 264.570134 55.81722 
L 266.254695 55.7202 
L 267.910712 55.81722 
L 271.222748 56.39472 
L 276.190801 57.54972 
L 279.502836 58.5384 
L 282.814871 59.71188 
L 287.782924 61.76316 
L 296.063012 65.57004 
L 302.687083 68.53608 
L 307.655136 70.49496 
L 310.967171 71.613 
L 314.279206 72.55086 
L 317.591242 73.30854 
L 320.903277 73.86756 
L 324.215312 74.24178 
L 327.527347 74.4312 
L 330.839383 74.45892 
L 335.807436 74.23254 
L 340.775489 73.74744 
L 347.399559 72.83268 
L 370.583806 69.22446 
L 377.207877 68.53146 
L 383.831947 68.12028 
L 388.8 68.02788 
L 388.8 68.02788 
" style="fill:none;stroke:#ff0000;stroke-linecap:square;stroke-width:2;"/>
   </g>
   <g id="line2d_37">
    <path clip-path="url(#pe5d3e91e4d)" d="M 54 68.01864 
L 55.725648 68.15724 
L 57.451296 68.56842 
L 59.176944 69.24756 
L 60.902592 70.1808 
L 62.62824 71.34042 
L 64.353888 72.70794 
L 67.805183 75.93732 
L 71.256479 79.4439 
L 72.982127 80.93616 
L 74.707775 81.98028 
L 78.159071 83.32932 
L 85.061663 85.83336 
L 90.238606 88.0371 
L 95.41555 90.55962 
L 100.592494 93.36858 
L 107.495086 97.45728 
L 123.025917 107.06226 
L 124.751565 107.90772 
L 126.436126 107.06688 
L 129.805248 104.88624 
L 136.543492 100.16922 
L 143.281737 95.55384 
L 146.650859 93.47946 
L 150.019981 91.65918 
L 153.389103 90.1623 
L 156.758225 89.04888 
L 158.442786 88.64694 
L 160.127347 88.3605 
L 163.49647 88.1295 
L 165.181031 88.19418 
L 166.865592 88.37898 
L 168.550153 88.67928 
L 171.919275 89.631 
L 175.288397 91.017 
L 178.657519 92.80032 
L 182.026641 94.90704 
L 185.395763 97.26786 
L 197.187691 105.8703 
L 198.872252 106.24452 
L 200.556813 105.34824 
L 202.241374 103.97148 
L 205.610496 100.8345 
L 210.66418 95.6601 
L 217.402424 88.3143 
L 225.825229 79.1436 
L 230.878912 74.01078 
L 234.248034 70.8507 
L 237.617157 67.95396 
L 240.986279 65.34828 
L 244.355401 63.05676 
L 247.724523 61.09788 
L 251.093645 59.47626 
L 254.462767 58.17804 
L 257.831889 57.18474 
L 262.885573 56.07594 
L 264.570134 55.81722 
L 266.254695 55.71558 
L 267.910712 55.8126 
L 271.222748 56.3901 
L 276.190801 57.5451 
L 279.502836 58.52916 
L 282.814871 59.70726 
L 287.782924 61.75854 
L 294.406995 64.78926 
L 302.687083 68.53146 
L 307.655136 70.48572 
L 310.967171 71.60376 
L 314.279206 72.54624 
L 317.591242 73.2993 
L 320.903277 73.86294 
L 324.215312 74.23254 
L 327.527347 74.42658 
L 332.4954 74.41272 
L 337.463453 74.08932 
L 342.431506 73.53492 
L 349.055577 72.56472 
L 367.271771 69.6495 
L 373.895841 68.83638 
L 380.519912 68.27736 
L 385.487965 68.06022 
L 388.8 68.01864 
L 388.8 68.01864 
" style="fill:none;stroke:#ff0000;stroke-linecap:square;stroke-width:2;"/>
   </g>
   <g id="line2d_38">
    <path clip-path="url(#pe5d3e91e4d)" d="M 0 0 
" style="fill:none;stroke:#ff0000;stroke-linecap:square;stroke-width:2;"/>
   </g>
   <g id="line2d_39">
    <path clip-path="url(#pe5d3e91e4d)" d="M 0 0 
" style="fill:none;stroke:#ff0000;stroke-linecap:square;stroke-width:2;"/>
   </g>
   <g id="line2d_40">
    <path clip-path="url(#pe5d3e91e4d)" d="M 0 0 
" style="fill:none;stroke:#ff0000;stroke-linecap:square;stroke-width:2;"/>
   </g>
   <g id="line2d_41">
    <path clip-path="url(#pe5d3e91e4d)" d="M 0 0 
" style="fill:none;stroke:#ff0000;stroke-linecap:square;stroke-width:2;"/>
   </g>
   <g id="line2d_42">
    <path clip-path="url(#pe5d3e91e4d)" d="M 0 0 
" style="fill:none;stroke:#ff0000;stroke-linecap:square;stroke-width:2;"/>
   </g>
   <g id="line2d_43">
    <path clip-path="url(#pe5d3e91e4d)" d="M 0 0 
" style="fill:none;stroke:#ff0000;stroke-linecap:square;stroke-width:2;"/>
   </g>
   <g id="line2d_44">
    <path clip-path="url(#pe5d3e91e4d)" d="M 0 0 
" style="fill:none;stroke:#ff0000;stroke-linecap:square;stroke-width:2;"/>
   </g>
   <g id="line2d_45">
    <path clip-path="url(#pe5d3e91e4d)" d="M 0 0 
" style="fill:none;stroke:#ff0000;stroke-linecap:square;stroke-width:2;"/>
   </g>
   <g id="line2d_46">
    <path clip-path="url(#pe5d3e91e4d)" d="M 0 0 
" style="fill:none;stroke:#ff0000;stroke-linecap:square;stroke-width:2;"/>
   </g>
   <g id="line2d_47">
    <path clip-path="url(#pe5d3e91e4d)" d="M 0 0 
" style="fill:none;stroke:#ff0000;stroke-linecap:square;stroke-width:2;"/>
   </g>
   <g id="line2d_48">
    <path clip-path="url(#pe5d3e91e4d)" d="M 54 181.8 
L 388.8 181.8 
" style="fill:none;stroke:#000000;stroke-dasharray:3.7,1.6;stroke-dashoffset:0;stroke-opacity:0.5;"/>
   </g>
   <g id="line2d_49">
    <path clip-path="url(#pe5d3e91e4d)" d="M 54 320.4 
L 54 43.2 
" style="fill:none;stroke:#000000;stroke-dasharray:3.7,1.6;stroke-dashoffset:0;stroke-opacity:0.5;"/>
   </g>
   <g id="line2d_50">
    <path clip-path="url(#pe5d3e91e4d)" d="M 124.751565 320.4 
L 124.751565 43.2 
" style="fill:none;stroke:#000000;stroke-dasharray:3.7,1.6;stroke-dashoffset:0;stroke-opacity:0.5;"/>
   </g>
   <g id="line2d_51">
    <path clip-path="url(#pe5d3e91e4d)" d="M 266.254695 320.4 
L 266.254695 43.2 
" style="fill:none;stroke:#000000;stroke-dasharray:3.7,1.6;stroke-dashoffset:0;stroke-opacity:0.5;"/>
   </g>
   <g id="line2d_52">
    <path clip-path="url(#pe5d3e91e4d)" d="M 388.8 320.4 
L 388.8 43.2 
" style="fill:none;stroke:#000000;stroke-dasharray:3.7,1.6;stroke-dashoffset:0;stroke-opacity:0.5;"/>
   </g>
   <g id="patch_3">
    <path d="M 54 320.4 
L 54 43.2 
" style="fill:none;stroke:#000000;stroke-linecap:square;stroke-linejoin:miter;stroke-width:0.8;"/>
   </g>
   <g id="patch_4">
    <path d="M 388.8 320.4 
L 388.8 43.2 
" style="fill:none;stroke:#000000;stroke-linecap:square;stroke-linejoin:miter;stroke-width:0.8;"/>
   </g>
   <g id="patch_5">
    <path d="M 54 320.4 
L 388.8 320.4 
" style="fill:none;stroke:#000000;stroke-linecap:square;stroke-linejoin:miter;stroke-width:0.8;"/>
   </g>
   <g id="patch_6">
    <path d="M 54 43.2 
L 388.8 43.2 
" style="fill:none;stroke:#000000;stroke-linecap:square;stroke-linejoin:miter;stroke-width:0.8;"/>
   </g>
   <g id="text_13">
    <!-- band structure of 1L-PtSe$_2$ with SOC -->
    <g transform="translate(39.8 37.2)scale(0.2 -0.2)">
     <defs>
      <path d="M 48.6875 27.296875 
Q 48.6875 37.203125 44.609375 42.84375 
Q 40.53125 48.484375 33.40625 48.484375 
Q 26.265625 48.484375 22.1875 42.84375 
Q 18.109375 37.203125 18.109375 27.296875 
Q 18.109375 17.390625 22.1875 11.75 
Q 26.265625 6.109375 33.40625 6.109375 
Q 40.53125 6.109375 44.609375 11.75 
Q 48.6875 17.390625 48.6875 27.296875 
z
M 18.109375 46.390625 
Q 20.953125 51.265625 25.265625 53.625 
Q 29.59375 56 35.59375 56 
Q 45.5625 56 51.78125 48.09375 
Q 58.015625 40.1875 58.015625 27.296875 
Q 58.015625 14.40625 51.78125 6.484375 
Q 45.5625 -1.421875 35.59375 -1.421875 
Q 29.59375 -1.421875 25.265625 0.953125 
Q 20.953125 3.328125 18.109375 8.203125 
L 18.109375 0 
L 9.078125 0 
L 9.078125 75.984375 
L 18.109375 75.984375 
z
" id="DejaVuSans-98"/>
      <path d="M 34.28125 27.484375 
Q 23.390625 27.484375 19.1875 25 
Q 14.984375 22.515625 14.984375 16.5 
Q 14.984375 11.71875 18.140625 8.90625 
Q 21.296875 6.109375 26.703125 6.109375 
Q 34.1875 6.109375 38.703125 11.40625 
Q 43.21875 16.703125 43.21875 25.484375 
L 43.21875 27.484375 
z
M 52.203125 31.203125 
L 52.203125 0 
L 43.21875 0 
L 43.21875 8.296875 
Q 40.140625 3.328125 35.546875 0.953125 
Q 30.953125 -1.421875 24.3125 -1.421875 
Q 15.921875 -1.421875 10.953125 3.296875 
Q 6 8.015625 6 15.921875 
Q 6 25.140625 12.171875 29.828125 
Q 18.359375 34.515625 30.609375 34.515625 
L 43.21875 34.515625 
L 43.21875 35.40625 
Q 43.21875 41.609375 39.140625 45 
Q 35.0625 48.390625 27.6875 48.390625 
Q 23 48.390625 18.546875 47.265625 
Q 14.109375 46.140625 10.015625 43.890625 
L 10.015625 52.203125 
Q 14.9375 54.109375 19.578125 55.046875 
Q 24.21875 56 28.609375 56 
Q 40.484375 56 46.34375 49.84375 
Q 52.203125 43.703125 52.203125 31.203125 
z
" id="DejaVuSans-97"/>
      <path d="M 54.890625 33.015625 
L 54.890625 0 
L 45.90625 0 
L 45.90625 32.71875 
Q 45.90625 40.484375 42.875 44.328125 
Q 39.84375 48.1875 33.796875 48.1875 
Q 26.515625 48.1875 22.3125 43.546875 
Q 18.109375 38.921875 18.109375 30.90625 
L 18.109375 0 
L 9.078125 0 
L 9.078125 54.6875 
L 18.109375 54.6875 
L 18.109375 46.1875 
Q 21.34375 51.125 25.703125 53.5625 
Q 30.078125 56 35.796875 56 
Q 45.21875 56 50.046875 50.171875 
Q 54.890625 44.34375 54.890625 33.015625 
z
" id="DejaVuSans-110"/>
      <path d="M 45.40625 46.390625 
L 45.40625 75.984375 
L 54.390625 75.984375 
L 54.390625 0 
L 45.40625 0 
L 45.40625 8.203125 
Q 42.578125 3.328125 38.25 0.953125 
Q 33.9375 -1.421875 27.875 -1.421875 
Q 17.96875 -1.421875 11.734375 6.484375 
Q 5.515625 14.40625 5.515625 27.296875 
Q 5.515625 40.1875 11.734375 48.09375 
Q 17.96875 56 27.875 56 
Q 33.9375 56 38.25 53.625 
Q 42.578125 51.265625 45.40625 46.390625 
z
M 14.796875 27.296875 
Q 14.796875 17.390625 18.875 11.75 
Q 22.953125 6.109375 30.078125 6.109375 
Q 37.203125 6.109375 41.296875 11.75 
Q 45.40625 17.390625 45.40625 27.296875 
Q 45.40625 37.203125 41.296875 42.84375 
Q 37.203125 48.484375 30.078125 48.484375 
Q 22.953125 48.484375 18.875 42.84375 
Q 14.796875 37.203125 14.796875 27.296875 
z
" id="DejaVuSans-100"/>
      <path d="M 44.28125 53.078125 
L 44.28125 44.578125 
Q 40.484375 46.53125 36.375 47.5 
Q 32.28125 48.484375 27.875 48.484375 
Q 21.1875 48.484375 17.84375 46.4375 
Q 14.5 44.390625 14.5 40.28125 
Q 14.5 37.15625 16.890625 35.375 
Q 19.28125 33.59375 26.515625 31.984375 
L 29.59375 31.296875 
Q 39.15625 29.25 43.1875 25.515625 
Q 47.21875 21.78125 47.21875 15.09375 
Q 47.21875 7.46875 41.1875 3.015625 
Q 35.15625 -1.421875 24.609375 -1.421875 
Q 20.21875 -1.421875 15.453125 -0.5625 
Q 10.6875 0.296875 5.421875 2 
L 5.421875 11.28125 
Q 10.40625 8.6875 15.234375 7.390625 
Q 20.0625 6.109375 24.8125 6.109375 
Q 31.15625 6.109375 34.5625 8.28125 
Q 37.984375 10.453125 37.984375 14.40625 
Q 37.984375 18.0625 35.515625 20.015625 
Q 33.0625 21.96875 24.703125 23.78125 
L 21.578125 24.515625 
Q 13.234375 26.265625 9.515625 29.90625 
Q 5.8125 33.546875 5.8125 39.890625 
Q 5.8125 47.609375 11.28125 51.796875 
Q 16.75 56 26.8125 56 
Q 31.78125 56 36.171875 55.265625 
Q 40.578125 54.546875 44.28125 53.078125 
z
" id="DejaVuSans-115"/>
      <path d="M 18.3125 70.21875 
L 18.3125 54.6875 
L 36.8125 54.6875 
L 36.8125 47.703125 
L 18.3125 47.703125 
L 18.3125 18.015625 
Q 18.3125 11.328125 20.140625 9.421875 
Q 21.96875 7.515625 27.59375 7.515625 
L 36.8125 7.515625 
L 36.8125 0 
L 27.59375 0 
Q 17.1875 0 13.234375 3.875 
Q 9.28125 7.765625 9.28125 18.015625 
L 9.28125 47.703125 
L 2.6875 47.703125 
L 2.6875 54.6875 
L 9.28125 54.6875 
L 9.28125 70.21875 
z
" id="DejaVuSans-116"/>
      <path d="M 41.109375 46.296875 
Q 39.59375 47.171875 37.8125 47.578125 
Q 36.03125 48 33.890625 48 
Q 26.265625 48 22.1875 43.046875 
Q 18.109375 38.09375 18.109375 28.8125 
L 18.109375 0 
L 9.078125 0 
L 9.078125 54.6875 
L 18.109375 54.6875 
L 18.109375 46.1875 
Q 20.953125 51.171875 25.484375 53.578125 
Q 30.03125 56 36.53125 56 
Q 37.453125 56 38.578125 55.875 
Q 39.703125 55.765625 41.0625 55.515625 
z
" id="DejaVuSans-114"/>
      <path d="M 8.5 21.578125 
L 8.5 54.6875 
L 17.484375 54.6875 
L 17.484375 21.921875 
Q 17.484375 14.15625 20.5 10.265625 
Q 23.53125 6.390625 29.59375 6.390625 
Q 36.859375 6.390625 41.078125 11.03125 
Q 45.3125 15.671875 45.3125 23.6875 
L 45.3125 54.6875 
L 54.296875 54.6875 
L 54.296875 0 
L 45.3125 0 
L 45.3125 8.40625 
Q 42.046875 3.421875 37.71875 1 
Q 33.40625 -1.421875 27.6875 -1.421875 
Q 18.265625 -1.421875 13.375 4.4375 
Q 8.5 10.296875 8.5 21.578125 
z
M 31.109375 56 
z
" id="DejaVuSans-117"/>
      <path d="M 48.78125 52.59375 
L 48.78125 44.1875 
Q 44.96875 46.296875 41.140625 47.34375 
Q 37.3125 48.390625 33.40625 48.390625 
Q 24.65625 48.390625 19.8125 42.84375 
Q 14.984375 37.3125 14.984375 27.296875 
Q 14.984375 17.28125 19.8125 11.734375 
Q 24.65625 6.203125 33.40625 6.203125 
Q 37.3125 6.203125 41.140625 7.25 
Q 44.96875 8.296875 48.78125 10.40625 
L 48.78125 2.09375 
Q 45.015625 0.34375 40.984375 -0.53125 
Q 36.96875 -1.421875 32.421875 -1.421875 
Q 20.0625 -1.421875 12.78125 6.34375 
Q 5.515625 14.109375 5.515625 27.296875 
Q 5.515625 40.671875 12.859375 48.328125 
Q 20.21875 56 33.015625 56 
Q 37.15625 56 41.109375 55.140625 
Q 45.0625 54.296875 48.78125 52.59375 
z
" id="DejaVuSans-99"/>
      <path d="M 30.609375 48.390625 
Q 23.390625 48.390625 19.1875 42.75 
Q 14.984375 37.109375 14.984375 27.296875 
Q 14.984375 17.484375 19.15625 11.84375 
Q 23.34375 6.203125 30.609375 6.203125 
Q 37.796875 6.203125 41.984375 11.859375 
Q 46.1875 17.53125 46.1875 27.296875 
Q 46.1875 37.015625 41.984375 42.703125 
Q 37.796875 48.390625 30.609375 48.390625 
z
M 30.609375 56 
Q 42.328125 56 49.015625 48.375 
Q 55.71875 40.765625 55.71875 27.296875 
Q 55.71875 13.875 49.015625 6.21875 
Q 42.328125 -1.421875 30.609375 -1.421875 
Q 18.84375 -1.421875 12.171875 6.21875 
Q 5.515625 13.875 5.515625 27.296875 
Q 5.515625 40.765625 12.171875 48.375 
Q 18.84375 56 30.609375 56 
z
" id="DejaVuSans-111"/>
      <path d="M 37.109375 75.984375 
L 37.109375 68.5 
L 28.515625 68.5 
Q 23.6875 68.5 21.796875 66.546875 
Q 19.921875 64.59375 19.921875 59.515625 
L 19.921875 54.6875 
L 34.71875 54.6875 
L 34.71875 47.703125 
L 19.921875 47.703125 
L 19.921875 0 
L 10.890625 0 
L 10.890625 47.703125 
L 2.296875 47.703125 
L 2.296875 54.6875 
L 10.890625 54.6875 
L 10.890625 58.5 
Q 10.890625 67.625 15.140625 71.796875 
Q 19.390625 75.984375 28.609375 75.984375 
z
" id="DejaVuSans-102"/>
      <path d="M 9.8125 72.90625 
L 19.671875 72.90625 
L 19.671875 8.296875 
L 55.171875 8.296875 
L 55.171875 0 
L 9.8125 0 
z
" id="DejaVuSans-76"/>
      <path d="M 4.890625 31.390625 
L 31.203125 31.390625 
L 31.203125 23.390625 
L 4.890625 23.390625 
z
" id="DejaVuSans-45"/>
      <path d="M 19.671875 64.796875 
L 19.671875 37.40625 
L 32.078125 37.40625 
Q 38.96875 37.40625 42.71875 40.96875 
Q 46.484375 44.53125 46.484375 51.125 
Q 46.484375 57.671875 42.71875 61.234375 
Q 38.96875 64.796875 32.078125 64.796875 
z
M 9.8125 72.90625 
L 32.078125 72.90625 
Q 44.34375 72.90625 50.609375 67.359375 
Q 56.890625 61.8125 56.890625 51.125 
Q 56.890625 40.328125 50.609375 34.8125 
Q 44.34375 29.296875 32.078125 29.296875 
L 19.671875 29.296875 
L 19.671875 0 
L 9.8125 0 
z
" id="DejaVuSans-80"/>
      <path d="M 53.515625 70.515625 
L 53.515625 60.890625 
Q 47.90625 63.578125 42.921875 64.890625 
Q 37.9375 66.21875 33.296875 66.21875 
Q 25.25 66.21875 20.875 63.09375 
Q 16.5 59.96875 16.5 54.203125 
Q 16.5 49.359375 19.40625 46.890625 
Q 22.3125 44.4375 30.421875 42.921875 
L 36.375 41.703125 
Q 47.40625 39.59375 52.65625 34.296875 
Q 57.90625 29 57.90625 20.125 
Q 57.90625 9.515625 50.796875 4.046875 
Q 43.703125 -1.421875 29.984375 -1.421875 
Q 24.8125 -1.421875 18.96875 -0.25 
Q 13.140625 0.921875 6.890625 3.21875 
L 6.890625 13.375 
Q 12.890625 10.015625 18.65625 8.296875 
Q 24.421875 6.59375 29.984375 6.59375 
Q 38.421875 6.59375 43.015625 9.90625 
Q 47.609375 13.234375 47.609375 19.390625 
Q 47.609375 24.75 44.3125 27.78125 
Q 41.015625 30.8125 33.5 32.328125 
L 27.484375 33.5 
Q 16.453125 35.6875 11.515625 40.375 
Q 6.59375 45.0625 6.59375 53.421875 
Q 6.59375 63.09375 13.40625 68.65625 
Q 20.21875 74.21875 32.171875 74.21875 
Q 37.3125 74.21875 42.625 73.28125 
Q 47.953125 72.359375 53.515625 70.515625 
z
" id="DejaVuSans-83"/>
      <path d="M 4.203125 54.6875 
L 13.1875 54.6875 
L 24.421875 12.015625 
L 35.59375 54.6875 
L 46.1875 54.6875 
L 57.421875 12.015625 
L 68.609375 54.6875 
L 77.59375 54.6875 
L 63.28125 0 
L 52.6875 0 
L 40.921875 44.828125 
L 29.109375 0 
L 18.5 0 
z
" id="DejaVuSans-119"/>
      <path d="M 9.421875 54.6875 
L 18.40625 54.6875 
L 18.40625 0 
L 9.421875 0 
z
M 9.421875 75.984375 
L 18.40625 75.984375 
L 18.40625 64.59375 
L 9.421875 64.59375 
z
" id="DejaVuSans-105"/>
      <path d="M 54.890625 33.015625 
L 54.890625 0 
L 45.90625 0 
L 45.90625 32.71875 
Q 45.90625 40.484375 42.875 44.328125 
Q 39.84375 48.1875 33.796875 48.1875 
Q 26.515625 48.1875 22.3125 43.546875 
Q 18.109375 38.921875 18.109375 30.90625 
L 18.109375 0 
L 9.078125 0 
L 9.078125 75.984375 
L 18.109375 75.984375 
L 18.109375 46.1875 
Q 21.34375 51.125 25.703125 53.5625 
Q 30.078125 56 35.796875 56 
Q 45.21875 56 50.046875 50.171875 
Q 54.890625 44.34375 54.890625 33.015625 
z
" id="DejaVuSans-104"/>
      <path d="M 39.40625 66.21875 
Q 28.65625 66.21875 22.328125 58.203125 
Q 16.015625 50.203125 16.015625 36.375 
Q 16.015625 22.609375 22.328125 14.59375 
Q 28.65625 6.59375 39.40625 6.59375 
Q 50.140625 6.59375 56.421875 14.59375 
Q 62.703125 22.609375 62.703125 36.375 
Q 62.703125 50.203125 56.421875 58.203125 
Q 50.140625 66.21875 39.40625 66.21875 
z
M 39.40625 74.21875 
Q 54.734375 74.21875 63.90625 63.9375 
Q 73.09375 53.65625 73.09375 36.375 
Q 73.09375 19.140625 63.90625 8.859375 
Q 54.734375 -1.421875 39.40625 -1.421875 
Q 24.03125 -1.421875 14.8125 8.828125 
Q 5.609375 19.09375 5.609375 36.375 
Q 5.609375 53.65625 14.8125 63.9375 
Q 24.03125 74.21875 39.40625 74.21875 
z
" id="DejaVuSans-79"/>
      <path d="M 64.40625 67.28125 
L 64.40625 56.890625 
Q 59.421875 61.53125 53.78125 63.8125 
Q 48.140625 66.109375 41.796875 66.109375 
Q 29.296875 66.109375 22.65625 58.46875 
Q 16.015625 50.828125 16.015625 36.375 
Q 16.015625 21.96875 22.65625 14.328125 
Q 29.296875 6.6875 41.796875 6.6875 
Q 48.140625 6.6875 53.78125 8.984375 
Q 59.421875 11.28125 64.40625 15.921875 
L 64.40625 5.609375 
Q 59.234375 2.09375 53.4375 0.328125 
Q 47.65625 -1.421875 41.21875 -1.421875 
Q 24.65625 -1.421875 15.125 8.703125 
Q 5.609375 18.84375 5.609375 36.375 
Q 5.609375 53.953125 15.125 64.078125 
Q 24.65625 74.21875 41.21875 74.21875 
Q 47.75 74.21875 53.53125 72.484375 
Q 59.328125 70.75 64.40625 67.28125 
z
" id="DejaVuSans-67"/>
     </defs>
     <use transform="translate(0 0.015625)" xlink:href="#DejaVuSans-98"/>
     <use transform="translate(63.476562 0.015625)" xlink:href="#DejaVuSans-97"/>
     <use transform="translate(124.755859 0.015625)" xlink:href="#DejaVuSans-110"/>
     <use transform="translate(188.134766 0.015625)" xlink:href="#DejaVuSans-100"/>
     <use transform="translate(251.611328 0.015625)" xlink:href="#DejaVuSans-32"/>
     <use transform="translate(283.398438 0.015625)" xlink:href="#DejaVuSans-115"/>
     <use transform="translate(335.498047 0.015625)" xlink:href="#DejaVuSans-116"/>
     <use transform="translate(374.707031 0.015625)" xlink:href="#DejaVuSans-114"/>
     <use transform="translate(415.820312 0.015625)" xlink:href="#DejaVuSans-117"/>
     <use transform="translate(479.199219 0.015625)" xlink:href="#DejaVuSans-99"/>
     <use transform="translate(534.179688 0.015625)" xlink:href="#DejaVuSans-116"/>
     <use transform="translate(573.388672 0.015625)" xlink:href="#DejaVuSans-117"/>
     <use transform="translate(636.767578 0.015625)" xlink:href="#DejaVuSans-114"/>
     <use transform="translate(677.880859 0.015625)" xlink:href="#DejaVuSans-101"/>
     <use transform="translate(739.404297 0.015625)" xlink:href="#DejaVuSans-32"/>
     <use transform="translate(771.191406 0.015625)" xlink:href="#DejaVuSans-111"/>
     <use transform="translate(832.373047 0.015625)" xlink:href="#DejaVuSans-102"/>
     <use transform="translate(867.578125 0.015625)" xlink:href="#DejaVuSans-32"/>
     <use transform="translate(899.365234 0.015625)" xlink:href="#DejaVuSans-49"/>
     <use transform="translate(962.988281 0.015625)" xlink:href="#DejaVuSans-76"/>
     <use transform="translate(1018.701172 0.015625)" xlink:href="#DejaVuSans-45"/>
     <use transform="translate(1054.785156 0.015625)" xlink:href="#DejaVuSans-80"/>
     <use transform="translate(1115.087891 0.015625)" xlink:href="#DejaVuSans-116"/>
     <use transform="translate(1154.296875 0.015625)" xlink:href="#DejaVuSans-83"/>
     <use transform="translate(1217.773438 0.015625)" xlink:href="#DejaVuSans-101"/>
     <use transform="translate(1280.253906 -16.390625)scale(0.7)" xlink:href="#DejaVuSans-50"/>
     <use transform="translate(1327.524414 0.015625)" xlink:href="#DejaVuSans-32"/>
     <use transform="translate(1359.311523 0.015625)" xlink:href="#DejaVuSans-119"/>
     <use transform="translate(1441.098633 0.015625)" xlink:href="#DejaVuSans-105"/>
     <use transform="translate(1468.881836 0.015625)" xlink:href="#DejaVuSans-116"/>
     <use transform="translate(1508.09082 0.015625)" xlink:href="#DejaVuSans-104"/>
     <use transform="translate(1571.469727 0.015625)" xlink:href="#DejaVuSans-32"/>
     <use transform="translate(1603.256836 0.015625)" xlink:href="#DejaVuSans-83"/>
     <use transform="translate(1666.733398 0.015625)" xlink:href="#DejaVuSans-79"/>
     <use transform="translate(1745.444336 0.015625)" xlink:href="#DejaVuSans-67"/>
    </g>
   </g>
  </g>
 </g>
 <defs>
  <clipPath id="pe5d3e91e4d">
   <rect height="277.2" width="334.8" x="54" y="43.2"/>
  </clipPath>
 </defs>
</svg>
